<svg width="1147" height="182" viewBox="0 0 1147 182" fill="none" xmlns="http://www.w3.org/2000/svg">
<g opacity="0.03">
<path d="M0.00390625 176.617L70.1342 4.68745H127.306L197.245 176.617H149.412L137.406 144.769H59.8434L47.6468 176.617H0.00390625ZM75.0891 104.301H121.97L98.5294 42.761L75.0891 104.301Z" fill="#273043"/>
<path d="M286.131 181.406C231.246 181.406 195.228 145.727 195.228 90.6523C195.228 36.0562 231.246 0.616699 286.131 0.616699C336.823 0.616699 372.46 30.0698 376.08 74.1298H328.438C326.151 59.2835 309.762 47.7896 286.131 47.7896C259.26 47.7896 241.918 65.0305 241.918 90.6523C241.918 116.514 259.26 133.994 286.131 133.994C309.762 133.994 326.151 122.5 328.438 107.414H376.08C372.46 151.953 336.823 181.406 286.131 181.406Z" fill="#273043"/>
<path d="M374.075 176.617L444.205 4.68745H501.377L571.316 176.617H523.483L511.477 144.769H433.914L421.718 176.617H374.075ZM449.16 104.301H496.041L472.6 42.761L449.16 104.301Z" fill="#273043"/>
<path d="M586.465 176.617V4.68745H684.229C723.867 4.68745 752.644 40.6059 752.644 90.4128C752.644 140.22 723.867 176.617 684.229 176.617H586.465ZM631.25 129.205H666.124C693.185 129.205 706.335 116.274 706.335 90.4128C706.335 64.791 693.185 52.0998 666.124 52.0998H631.25V129.205Z" fill="#273043"/>
<path d="M773.501 176.617V4.68745H913.38V47.0712H818.285V71.2563H909.569V109.809H818.285V134.233H913.38V176.617H773.501Z" fill="#273043"/>
<path d="M934.109 176.617V4.68745H1004.05L1044.64 111.724L1085.04 4.68745H1154.79V176.617H1110.01V58.0862L1065.41 176.617H1023.68L978.894 58.0862V176.617H934.109Z" fill="#273043"/>
<path d="M1240.08 176.617V119.148L1165.95 4.68745H1221.6L1262.38 71.9747L1303.35 4.68745H1359L1284.87 119.148V176.617H1240.08Z" fill="#273043"/>
</g>
</svg>
