<svg width="42" height="42" viewBox="0 0 42 42" fill="none" xmlns="http://www.w3.org/2000/svg">
<g id="bi:geo-alt-fill" clip-path="url(#clip0_1761_1440)">
<path id="Vector" d="M20.75 42C20.75 42 36.5 27.0743 36.5 15.75C36.5 11.5728 34.8406 7.56677 31.8869 4.61307C28.9332 1.65937 24.9272 0 20.75 0C16.5728 0 12.5668 1.65937 9.61307 4.61307C6.65937 7.56677 5 11.5728 5 15.75C5 27.0743 20.75 42 20.75 42ZM20.75 23.625C18.6614 23.625 16.6584 22.7953 15.1815 21.3185C13.7047 19.8416 12.875 17.8386 12.875 15.75C12.875 13.6614 13.7047 11.6584 15.1815 10.1815C16.6584 8.70469 18.6614 7.875 20.75 7.875C22.8386 7.875 24.8416 8.70469 26.3185 10.1815C27.7953 11.6584 28.625 13.6614 28.625 15.75C28.625 17.8386 27.7953 19.8416 26.3185 21.3185C24.8416 22.7953 22.8386 23.625 20.75 23.625Z" fill="#F02D3A"/>
</g>
<defs>
<clipPath id="clip0_1761_1440">
<rect width="42" height="42" fill="white"/>
</clipPath>
</defs>
</svg>
