<svg width="1200" height="181" viewBox="0 0 1200 181" fill="none" xmlns="http://www.w3.org/2000/svg">
<g opacity="0.03">
<path d="M-159 176V4.07075H-50.8595C-14.4229 4.07075 -2.9269 21.3116 -2.9269 46.2151C-2.9269 66.8083 -12.6693 79.739 -27.088 85.9648C-9.55171 91.4723 5.06187 103.445 5.06187 128.588C5.06187 156.604 -8.57747 176 -42.8707 176H-159ZM-113.211 135.293H-57.4843C-49.1058 135.293 -42.481 134.575 -42.481 121.165C-42.481 107.755 -49.4955 107.037 -57.4843 107.037H-113.211V135.293ZM-113.211 72.7947H-65.2782C-55.7306 72.7947 -48.7161 71.8369 -48.7161 58.4274C-48.7161 45.4967 -55.341 44.7783 -65.2782 44.7783H-113.211V72.7947Z" fill="#273043"/>
<path d="M103.681 180.79C43.6676 180.79 18.5322 149.66 18.5322 91.9513V4.07075H64.3215V90.0356C64.3215 111.587 72.1154 133.377 103.681 133.377C135.246 133.377 142.845 111.347 142.845 90.0356V4.07075H188.829V91.9513C188.829 149.66 163.499 180.79 103.681 180.79Z" fill="#273043"/>
<path d="M294.61 180.79C238.299 180.79 205.955 164.267 204.201 119.249H251.744C251.744 131.701 262.266 140.082 292.662 140.082C323.643 140.082 329.488 134.814 329.488 125.715C329.488 115.179 324.227 113.023 290.324 110.389L283.504 109.91C229.921 106.079 206.344 89.7962 206.344 52.9199C206.344 17.7198 236.935 0 285.063 0C340.01 0 369.432 20.5932 371.185 58.6668H323.643C323.643 45.4967 310.978 40.7076 284.673 40.7076C259.927 40.7076 253.887 45.4967 253.887 52.9199C253.887 61.7798 259.148 65.1321 290.518 67.7662L298.507 68.4845C346.245 73.0342 377.031 79.2601 377.031 123.56C377.031 166.901 346.245 180.79 294.61 180.79Z" fill="#273043"/>
<path d="M396.24 176V4.07075H442.029V176H396.24Z" fill="#273043"/>
<path d="M468.547 176V4.07075H536.354L607.863 121.883V4.07075H653.652V176H585.845L514.336 57.9484V176H468.547Z" fill="#273043"/>
<path d="M680.33 176V4.07075H823.348V46.4545H726.119V70.6396H819.451V109.192H726.119V133.617H823.348V176H680.33Z" fill="#273043"/>
<path d="M931.291 180.79C874.98 180.79 842.635 164.267 840.881 119.249H888.424C888.424 131.701 898.946 140.082 929.342 140.082C960.323 140.082 966.169 134.814 966.169 125.715C966.169 115.179 960.908 113.023 927.004 110.389L920.184 109.91C866.601 106.079 843.025 89.7962 843.025 52.9199C843.025 17.7198 873.616 0 921.743 0C976.69 0 1006.11 20.5932 1007.87 58.6668H960.323C960.323 45.4967 947.658 40.7076 921.354 40.7076C896.608 40.7076 890.568 45.4967 890.568 52.9199C890.568 61.7798 895.828 65.1321 927.199 67.7662L935.188 68.4845C982.925 73.0342 1013.71 79.2601 1013.71 123.56C1013.71 166.901 982.925 180.79 931.291 180.79Z" fill="#273043"/>
<path d="M1117.58 180.79C1061.26 180.79 1028.92 164.267 1027.17 119.249H1074.71C1074.71 131.701 1085.23 140.082 1115.63 140.082C1146.61 140.082 1152.45 134.814 1152.45 125.715C1152.45 115.179 1147.19 113.023 1113.29 110.389L1106.47 109.91C1052.89 106.079 1029.31 89.7962 1029.31 52.9199C1029.31 17.7198 1059.9 0 1108.03 0C1162.98 0 1192.4 20.5932 1194.15 58.6668H1146.61C1146.61 45.4967 1133.94 40.7076 1107.64 40.7076C1082.89 40.7076 1076.85 45.4967 1076.85 52.9199C1076.85 61.7798 1082.11 65.1321 1113.48 67.7662L1121.47 68.4845C1169.21 73.0342 1200 79.2601 1200 123.56C1200 166.901 1169.21 180.79 1117.58 180.79Z" fill="#273043"/>
</g>
</svg>
