<svg width="27" height="22" viewBox="0 0 27 22" fill="none" xmlns="http://www.w3.org/2000/svg">
<path id="Vector" d="M27 2.59768C26.2575 3.70751 25.3175 4.68291 24.2347 5.4648C24.2448 5.70274 24.2504 5.94125 24.2504 6.18144C24.2504 13.5014 18.6805 21.9419 8.49111 21.9419C5.36242 21.9419 1.28534 20.8461 0 19.4539C0.434259 19.5057 0.875268 19.5315 1.3219 19.5315C3.91789 19.5315 6.30632 18.6456 8.20142 17.16C5.77756 17.1155 3.7317 15.5129 3.02688 13.3124C4.1294 13.4857 5.52837 13.2168 5.52837 13.2168C5.52837 13.2168 1.19702 12.4731 1.08509 7.71597C2.33724 8.44217 3.59389 8.40842 3.59389 8.40842C3.59389 8.40842 1.09577 6.87052 1.13065 3.79864C1.15146 1.98679 1.87935 1.01252 1.87935 1.01252C6.61233 6.8407 13.2972 6.80077 13.2972 6.80077C13.2972 6.80077 13.1538 5.97331 13.1538 5.53905C13.1538 2.48068 15.6333 0 18.6928 0C20.2859 0 21.7253 0.672764 22.7356 1.74997C23.9984 1.50078 25.1842 1.03952 26.2541 0.405008C25.7709 2.34005 23.819 3.46957 23.819 3.46957C23.819 3.46957 25.4891 3.28451 27 2.59768ZM8.51643 19.6918C13.2044 19.9033 21.542 16.0951 22.0004 6.18144C22.0043 6.09144 22.0184 5.93 22.01 5.78431C21.9987 5.59643 22.0921 5.47155 22.1703 5.38942C22.2985 5.25386 22.4375 5.08904 22.5697 4.84323C22.6816 4.63566 22.613 4.54734 22.4746 4.52316C22.3807 4.50684 22.2833 4.48322 22.1753 4.45959C21.9824 4.4174 21.8986 4.23684 21.9897 4.05346C22.0516 3.92914 22.1343 3.75702 22.195 3.57757C22.2552 3.40095 22.177 3.36044 22.0426 3.38407C21.9312 3.40319 21.8024 3.42738 21.6871 3.44876C21.5082 3.48195 21.3231 3.44595 21.1482 3.24513C20.4698 2.46436 19.7352 2.25061 18.6923 2.25061C16.8664 2.25061 15.4033 3.72608 15.4033 5.53961C15.4033 6.03912 15.5321 6.63932 15.6221 7.21927C15.7903 8.30211 15.311 9.32363 13.651 9.19425C11.2125 9.00412 7.46059 8.4703 4.60472 6.36257C4.88879 6.92452 5.57112 7.79304 6.11281 8.44499C6.53357 8.95125 6.40251 9.73539 5.85856 9.99077C5.58574 10.119 5.25498 10.2259 4.87473 10.2951C5.87262 11.1023 7.01846 11.6254 7.89541 11.9978C8.99456 12.4641 9.29719 13.2218 8.62218 13.9767C8.37974 14.2479 8.06642 14.5218 7.66141 14.7654C8.14855 15.1017 8.96531 15.3836 9.89964 15.5354C10.843 15.689 11.4634 16.7246 10.4937 18.0094C10.0217 18.6349 9.34669 19.2356 8.51643 19.6918Z" fill="white"/>
</svg>
