<svg width="26" height="26" viewBox="0 0 26 26" fill="none" xmlns="http://www.w3.org/2000/svg">
<path id="Vector" d="M13 0C5.82045 0 0 5.82045 0 13C0 20.1795 5.82045 26 13 26C20.1795 26 26 20.1795 26 13C26 5.82045 20.1795 0 13 0ZM13 2.36364C18.8742 2.36364 23.6364 7.12577 23.6364 13C23.6364 18.8742 18.8742 23.6364 13 23.6364C7.12577 23.6364 2.36364 18.8742 2.36364 13C2.36364 7.12577 7.12577 2.36364 13 2.36364ZM18.3424 7.88148C18.0423 7.84686 17.6652 7.92913 17.2437 8.08114C16.4737 8.35887 6.6322 12.5379 6.06374 12.7796C5.52542 13.0088 5.01524 13.2587 5.01465 13.6198C5.01465 13.8739 5.16532 14.0173 5.58132 14.1657C6.01387 14.3205 7.10467 14.6503 7.74876 14.8281C8.36921 14.9989 9.07479 14.85 9.4707 14.6042C9.88966 14.3436 14.7306 11.1047 15.0774 10.821C15.4243 10.5374 15.7015 10.9015 15.4179 11.1857C15.1342 11.47 11.8111 14.693 11.3727 15.1397C10.8409 15.6822 11.2189 16.2441 11.5758 16.4693C11.983 16.7263 14.9141 18.6916 15.3556 19.0072C15.797 19.3227 16.2439 19.4654 16.6539 19.4654C17.064 19.4654 17.2799 18.9249 17.4838 18.2986C17.7231 17.5652 18.8441 10.2535 18.9818 8.81285C19.0238 8.37617 18.886 8.08591 18.6159 7.9565C18.5343 7.91735 18.4425 7.89302 18.3424 7.88148Z" fill="white"/>
</svg>
