<svg width="22" height="21" viewBox="0 0 22 21" fill="none" xmlns="http://www.w3.org/2000/svg">
<g id="&#208;&#159;&#208;&#190;&#208;&#184;&#209;&#129;&#208;&#186;">
<path id="Ellipse 10" d="M13.5834 4.48978C16.084 6.83293 16.084 10.6319 13.5834 12.9751C11.0828 15.3182 7.02843 15.3182 4.5278 12.9751C2.02716 10.6319 2.02716 6.83293 4.5278 4.48978C7.02843 2.14664 11.0828 2.14664 13.5834 4.48978ZM5.5825 11.9868C7.50064 13.7841 10.6106 13.7841 12.5287 11.9868C14.4468 10.1895 14.4468 7.27539 12.5287 5.47806C10.6106 3.68072 7.50064 3.68072 5.5825 5.47806C3.66436 7.27539 3.66436 10.1895 5.5825 11.9868Z" fill="#273043"/>
<rect id="Rectangle 570" width="2.0683" height="6.20491" transform="matrix(0.729712 -0.683755 0.729712 0.683755 12.0742 12.9751)" fill="#273043"/>
</g>
</svg>
