<svg width="24" height="24" viewBox="0 0 24 24" fill="none" xmlns="http://www.w3.org/2000/svg">
<path id="Vector" d="M7.06406 0C0.513262 0 0 0.512662 0 7.06406V16.9359C0 23.4867 0.513262 24 7.06406 24H16.9359C23.4867 24 24 23.4873 24 16.9359V7.06406C24 0.512662 23.4873 0 16.9359 0H7.06406ZM5.50078 2.4H18.4992C21.375 2.4 21.6 2.62498 21.6 5.50078V18.4992C21.6 21.375 21.3744 21.6 18.4992 21.6H15.9703V14.4234H18.8121L19.2598 11.2301H15.9703C15.9703 11.2301 15.9655 9.35956 15.9703 8.89336C15.9799 7.98076 16.7425 7.51918 17.3977 7.52578C18.0529 7.53298 19.4098 7.52813 19.4098 7.52813V4.58438C19.4098 4.58438 18.2351 4.43174 17.0027 4.41914C15.9671 4.40834 14.8236 4.68914 13.9008 5.61914C12.9618 6.56474 12.8137 7.97352 12.7957 9.69492C12.7903 10.1923 12.7957 11.2289 12.7957 11.2289H10.0148V14.4223H12.7957V21.6H5.50078C2.62498 21.6 2.4 21.3744 2.4 18.4992V5.50078C2.4 2.62498 2.62498 2.4 5.50078 2.4Z" fill="white"/>
</svg>
